<svg width="32" height="33" viewBox="0 0 32 33" fill="none" xmlns="http://www.w3.org/2000/svg">
<path d="M23.8912 19.4729C23.5459 19.8075 23.3872 20.2915 23.4659 20.7662L24.6512 27.3262C24.7512 27.8822 24.5165 28.4449 24.0512 28.7662C23.5952 29.0995 22.9885 29.1395 22.4912 28.8729L16.5859 25.7929C16.3805 25.6835 16.1525 25.6249 15.9192 25.6182H15.5579C15.4325 25.6369 15.3099 25.6769 15.1979 25.7382L9.29118 28.8329C8.99918 28.9795 8.66852 29.0315 8.34452 28.9795C7.55518 28.8302 7.02852 28.0782 7.15785 27.2849L8.34452 20.7249C8.42318 20.2462 8.26452 19.7595 7.91918 19.4195L3.10452 14.7529C2.70185 14.3622 2.56185 13.7755 2.74585 13.2462C2.92452 12.7182 3.38052 12.3329 3.93118 12.2462L10.5578 11.2849C11.0619 11.2329 11.5045 10.9262 11.7312 10.4729L14.6512 4.48622C14.7205 4.35289 14.8099 4.23022 14.9179 4.12622L15.0379 4.03289C15.1005 3.96356 15.1725 3.90622 15.2525 3.85956L15.3979 3.80622L15.6245 3.71289H16.1859C16.6872 3.76489 17.1285 4.06489 17.3592 4.51289L20.3179 10.4729C20.5312 10.9089 20.9459 11.2116 21.4245 11.2849L28.0512 12.2462C28.6112 12.3262 29.0792 12.7129 29.2645 13.2462C29.4392 13.7809 29.2885 14.3675 28.8779 14.7529L23.8912 19.4729Z" fill="#FACD49"/>
</svg>
